<?xml version="1.0" encoding="utf-8"?>
<!-- Generator: Adobe Illustrator 19.2.0, SVG Export Plug-In . SVG Version: 6.00 Build 0)  -->
<svg version="1.1" id="Layer_1" xmlns="http://www.w3.org/2000/svg" xmlns:xlink="http://www.w3.org/1999/xlink" x="0px" y="0px"
	 viewBox="0 0 612 612" style="enable-background:new 0 0 612 612;" xml:space="preserve">
<style type="text/css">
	.st0{fill:#CCCCCC;}
</style>
<path class="st0" d="M306,3.2c0,0-195.3,232-195.6,361.6c0.6,125.1,86.2,198,195.6,198c109.4,0,195-72.9,195.6-198
	C501.3,235.2,306,3.2,306,3.2z M313.7,480.5c-0.7,11.5-10.3,20.4-21.7,20.4c-0.4,0-0.9,0-1.3,0c-71-4.3-127.8-59.7-126.5-123.6
	c0.2-12,10.2-21.6,22.1-21.3c12,0.2,21.5,10.1,21.3,22.1c-0.8,40.9,37.7,76.5,85.7,79.4C305.3,458.2,314.4,468.5,313.7,480.5z"/>
</svg>
